<svg width="975" height="415" viewBox="0 0 975 415" fill="none" xmlns="http://www.w3.org/2000/svg">
<g clip-path="url(#clip0_774_27702)">
<path d="M312.973 331.077H268.503V409.126H160.682V331.077H0V251.35L167.814 5.875H268.503V249.672H312.973V331.077ZM160.682 249.672V202.675C160.682 193.863 161.102 182.114 161.521 167.007C162.36 151.901 162.78 144.348 163.199 143.509H160.262C153.969 157.776 146.837 170.784 138.866 183.372L94.3954 249.672H160.682Z" fill="#003E20"/>
<path d="M632.659 208.129C632.659 279.464 620.493 331.916 596.999 365.066C573.085 398.215 536.586 415 487.08 415C438.834 415 402.754 397.796 378.001 362.968C353.668 328.14 341.502 276.527 341.502 208.129C341.502 136.375 353.249 83.9231 377.582 50.3539C401.495 16.7846 437.995 0 487.5 0C535.327 0 571.827 17.6239 596.16 52.452C620.493 87.2801 632.659 138.893 632.659 208.129ZM449.742 208.129C449.742 253.868 452.679 285.339 458.133 302.123C464.006 319.328 473.236 327.72 486.661 327.72C500.086 327.72 509.735 318.908 515.609 301.284C521.063 283.66 524 252.609 524 208.129C524 163.231 521.063 132.179 515.609 114.135C509.735 96.092 500.506 87.2801 487.08 87.2801C473.655 87.2801 464.006 96.092 458.552 113.296C452.679 130.501 449.742 161.972 449.742 208.129Z" fill="#003E20"/>
<path d="M975 331.077H930.529V409.126H822.708V331.077H662.026V251.35L829.84 5.875H930.529V249.672H975V331.077ZM823.128 249.672V202.675C823.128 193.863 823.547 182.114 823.967 167.007C824.806 151.901 825.226 144.348 825.645 143.509H822.708C816.415 157.776 809.283 170.784 801.312 183.372L756.422 250.091H823.128V249.672Z" fill="#003E20"/>
<path d="M593.2 224.687C626.113 224.687 652.794 197.968 652.794 165.009C652.794 132.05 626.113 105.331 593.2 105.331C560.287 105.331 533.605 132.05 533.605 165.009C533.605 197.968 560.287 224.687 593.2 224.687Z" fill="white"/>
<path d="M397.132 224.687C430.045 224.687 456.727 197.968 456.727 165.009C456.727 132.05 430.045 105.331 397.132 105.331C364.219 105.331 337.538 132.05 337.538 165.009C337.538 197.968 364.219 224.687 397.132 224.687Z" fill="white"/>
<path d="M432.17 116.844C438.27 126.242 441.789 137.363 441.789 149.424C441.789 182.396 415.121 209.102 382.195 209.102C369.056 209.102 356.934 204.794 347.08 197.589C357.716 213.958 376.095 224.687 397.055 224.687C429.98 224.687 456.649 197.981 456.649 165.009C456.649 145.273 447.029 127.73 432.17 116.844Z" fill="#EFEFEF"/>
<path d="M628.237 116.844C634.337 126.242 637.856 137.363 637.856 149.424C637.856 182.396 611.188 209.102 578.262 209.102C565.123 209.102 553.001 204.794 543.147 197.589C553.783 213.958 572.162 224.687 593.122 224.687C626.047 224.687 652.716 197.981 652.716 165.009C652.716 145.273 643.018 127.73 628.237 116.844Z" fill="#EFEFEF"/>
<path d="M397.133 227.506C362.8 227.506 334.802 199.469 334.802 165.087C334.802 130.706 362.8 102.668 397.133 102.668C431.467 102.668 459.465 130.706 459.465 165.087C459.465 199.469 431.467 227.506 397.133 227.506ZM397.133 108.072C365.772 108.072 340.276 133.603 340.276 165.009C340.276 196.414 365.772 221.946 397.133 221.946C428.495 221.946 453.99 196.414 453.99 165.009C453.99 133.682 428.495 108.072 397.133 108.072Z" fill="#231F20"/>
<path d="M375.938 174.642C391.877 174.642 404.797 161.704 404.797 145.743C404.797 129.782 391.877 116.844 375.938 116.844C360 116.844 347.08 129.782 347.08 145.743C347.08 161.704 360 174.642 375.938 174.642Z" fill="#231F20"/>
<path d="M368.9 152.322C375.422 152.322 380.71 147.027 380.71 140.496C380.71 133.965 375.422 128.67 368.9 128.67C362.378 128.67 357.091 133.965 357.091 140.496C357.091 147.027 362.378 152.322 368.9 152.322Z" fill="white"/>
<path d="M593.2 227.506C558.867 227.506 530.868 199.469 530.868 165.087C530.868 130.706 558.867 102.668 593.2 102.668C627.533 102.668 655.531 130.706 655.531 165.087C655.531 199.469 627.533 227.506 593.2 227.506ZM593.2 108.072C561.838 108.072 536.343 133.603 536.343 165.009C536.343 196.414 561.838 221.946 593.2 221.946C624.561 221.946 650.057 196.414 650.057 165.009C650.057 133.682 624.561 108.072 593.2 108.072Z" fill="#231F20"/>
<path d="M611.031 214.349C626.969 214.349 639.889 201.411 639.889 185.45C639.889 169.489 626.969 156.551 611.031 156.551C595.092 156.551 582.172 169.489 582.172 185.45C582.172 201.411 595.092 214.349 611.031 214.349Z" fill="#231F20"/>
<path d="M603.992 192.029C610.514 192.029 615.801 186.734 615.801 180.203C615.801 173.672 610.514 168.377 603.992 168.377C597.47 168.377 592.183 173.672 592.183 180.203C592.183 186.734 597.47 192.029 603.992 192.029Z" fill="white"/>
<path d="M320.881 83.8722C330.969 95.4632 340.042 74.4741 371.246 67.8954C397.29 62.4132 413.557 75.4922 418.093 65.6242C422.629 55.7562 401.826 41.9723 363.504 48.081C334.958 52.5451 309.149 70.4016 320.881 83.8722Z" fill="#231F20"/>
<path d="M668.67 85.7515C657.955 96.7943 650.056 75.3353 619.242 67.0336C593.512 60.1416 576.541 72.2809 572.552 62.1779C568.564 52.0749 590.071 39.4658 628.002 47.6108C656.313 53.7196 681.105 72.9074 668.67 85.7515Z" fill="#231F20"/>
<path d="M486.368 358.219C467.285 358.219 452.816 341.459 438.661 325.09C425.835 310.21 412.539 294.781 396.82 294.076C361.392 292.432 322.992 342.242 322.6 342.712C320.645 345.296 316.97 345.766 314.389 343.808C311.808 341.85 311.339 338.169 313.294 335.585C315.014 333.392 354.353 282.329 395.099 282.329C395.881 282.329 396.585 282.329 397.367 282.407C418.092 283.425 433.03 300.733 447.498 317.493C462.827 335.271 476.122 350.622 493.25 345.453C509.517 340.519 523.985 324.934 538.063 309.897C555.66 291.022 573.804 271.521 596.171 273.949C617.6 276.298 635.197 289.377 647.163 311.776C655.922 328.223 658.503 343.886 658.581 344.513C659.128 347.724 656.939 350.7 653.732 351.248C650.526 351.796 647.554 349.604 647.006 346.393C646.928 345.844 637.309 290.161 594.92 285.618C578.418 283.817 563.011 300.42 546.666 317.885C531.572 334.018 516.008 350.778 496.691 356.652C493.093 357.67 489.652 358.219 486.368 358.219Z" fill="#231F20"/>
<path d="M297.418 324.934C292.96 336.055 294.837 349.369 301.641 359.159C303.596 361.978 305.864 364.484 308.602 366.599C309.462 367.304 310.635 367.46 311.417 366.599C312.121 365.894 312.277 364.406 311.417 363.779C302.736 356.966 298.278 345.845 299.139 334.88C299.373 331.826 300.155 328.85 301.25 325.952C301.641 324.934 300.781 323.759 299.842 323.446C298.748 323.211 297.809 323.916 297.418 324.934Z" fill="#231F20"/>
<path d="M651.699 368.87C658.816 370.044 665.307 365.502 669.765 360.333C673.988 355.399 677.038 349.29 678.289 342.946C678.993 339.265 679.228 335.506 678.837 331.825C678.759 330.729 677.977 329.789 676.803 329.789C675.787 329.789 674.692 330.729 674.77 331.825C675.943 343.025 671.329 355.477 662.022 362.134C659.363 364.014 656.078 365.58 652.715 365.032C651.621 364.875 650.526 365.345 650.213 366.442C650.056 367.382 650.604 368.713 651.699 368.87Z" fill="#231F20"/>
</g>
<defs>
<clipPath id="clip0_774_27702">
<rect width="975" height="415" fill="white"/>
</clipPath>
</defs>
</svg>
