<svg width="24" height="24" viewBox="0 0 24 24" fill="none" xmlns="http://www.w3.org/2000/svg">
<path d="M23.0318 11.5488C23.0318 5.18821 17.8755 0.0319328 11.5149 0.0319328C5.15433 0.0319328 -0.00195312 5.18821 -0.00195312 11.5488C-0.00195312 17.2972 4.2096 22.0618 9.71542 22.9258V14.8779H6.79121V11.5488H9.71542V9.0115C9.71542 6.12508 11.4348 4.53071 14.0655 4.53071C15.3256 4.53071 16.6435 4.75565 16.6435 4.75565V7.58988H15.1913C13.7606 7.58988 13.3144 8.47765 13.3144 9.38843V11.5488H16.5086L15.998 14.8779H13.3144V22.9258C18.8203 22.0618 23.0318 17.2972 23.0318 11.5488Z" fill="#1877F2"/>
<path d="M15.9978 14.8786L16.5084 11.5495H13.3142V9.38914C13.3142 8.47836 13.7604 7.5906 15.1911 7.5906H16.6433V4.75636C16.6433 4.75636 15.3254 4.53143 14.0653 4.53143C11.4346 4.53143 9.71522 6.12579 9.71522 9.01221V11.5495H6.79102V14.8786H9.71522V22.9265C10.3016 23.0185 10.9025 23.0664 11.5147 23.0664C12.1269 23.0664 12.7279 23.0185 13.3142 22.9265V14.8786H15.9978Z" fill="white"/>
</svg>
