<svg width="109" height="20" viewBox="0 0 109 20" fill="none" xmlns="http://www.w3.org/2000/svg">
<path d="M8.55777 2.87555C9.22242 1.81883 10.7782 1.81883 11.4429 2.87555L13.0503 5.43117C13.2841 5.80297 13.6556 6.06979 14.0856 6.17475L17.041 6.89621C18.2631 7.19453 18.7439 8.65723 17.9326 9.60864L15.9706 11.9096C15.6851 12.2443 15.5432 12.676 15.5751 13.1127L15.7943 16.1142C15.8849 17.3553 14.6262 18.2593 13.4602 17.7906L10.6402 16.657C10.2299 16.4921 9.77073 16.4921 9.36047 16.657L6.54047 17.7906C5.37443 18.2593 4.11575 17.3553 4.20637 16.1142L4.42555 13.1127C4.45743 12.676 4.31553 12.2443 4.03009 11.9096L2.06807 9.60864C1.25679 8.65723 1.73757 7.19453 2.95962 6.89621L5.91506 6.17475C6.34503 6.06979 6.71653 5.80297 6.95038 5.43117L8.55777 2.87555Z" fill="#F5B546"/>
<path d="M28.5578 2.87555C29.2224 1.81883 30.7782 1.81883 31.4429 2.87555L33.0503 5.43117C33.2841 5.80297 33.6556 6.06979 34.0856 6.17475L37.041 6.89621C38.2631 7.19453 38.7439 8.65723 37.9326 9.60864L35.9706 11.9096C35.6851 12.2443 35.5432 12.676 35.5751 13.1127L35.7943 16.1142C35.8849 17.3553 34.6262 18.2593 33.4602 17.7906L30.6402 16.657C30.2299 16.4921 29.7707 16.4921 29.3605 16.657L26.5405 17.7906C25.3744 18.2593 24.1157 17.3553 24.2064 16.1142L24.4255 13.1127C24.4574 12.676 24.3155 12.2443 24.0301 11.9096L22.0681 9.60864C21.2568 8.65723 21.7376 7.19453 22.9596 6.89621L25.9151 6.17475C26.345 6.06979 26.7165 5.80297 26.9504 5.43117L28.5578 2.87555Z" fill="#F5B546"/>
<path d="M48.5578 2.87555C49.2224 1.81883 50.7782 1.81883 51.4429 2.87555L53.0503 5.43117C53.2841 5.80297 53.6556 6.06979 54.0856 6.17475L57.041 6.89621C58.2631 7.19453 58.7439 8.65723 57.9326 9.60864L55.9706 11.9096C55.6851 12.2443 55.5432 12.676 55.5751 13.1127L55.7943 16.1142C55.8849 17.3553 54.6262 18.2593 53.4602 17.7906L50.6402 16.657C50.2299 16.4921 49.7707 16.4921 49.3605 16.657L46.5405 17.7906C45.3744 18.2593 44.1157 17.3553 44.2064 16.1142L44.4255 13.1127C44.4574 12.676 44.3155 12.2443 44.0301 11.9096L42.0681 9.60864C41.2568 8.65723 41.7376 7.19453 42.9596 6.89621L45.9151 6.17475C46.345 6.06979 46.7165 5.80297 46.9504 5.43117L48.5578 2.87555Z" fill="#F5B546"/>
<path d="M68.5578 2.87555C69.2224 1.81883 70.7782 1.81883 71.4429 2.87555L73.0503 5.43117C73.2841 5.80297 73.6556 6.06979 74.0856 6.17475L77.041 6.89621C78.2631 7.19453 78.7439 8.65723 77.9326 9.60864L75.9706 11.9096C75.6851 12.2443 75.5432 12.676 75.5751 13.1127L75.7943 16.1142C75.8849 17.3553 74.6262 18.2593 73.4602 17.7906L70.6402 16.657C70.2299 16.4921 69.7707 16.4921 69.3605 16.657L66.5405 17.7906C65.3744 18.2593 64.1157 17.3553 64.2064 16.1142L64.4255 13.1127C64.4574 12.676 64.3155 12.2443 64.0301 11.9096L62.0681 9.60864C61.2568 8.65723 61.7376 7.19453 62.9596 6.89621L65.9151 6.17475C66.345 6.06979 66.7165 5.80297 66.9504 5.43117L68.5578 2.87555Z" fill="#F5B546"/>
<path d="M88.5578 2.87555C89.2224 1.81883 90.7782 1.81883 91.4429 2.87555L93.0503 5.43117C93.2841 5.80297 93.6556 6.06979 94.0856 6.17475L97.041 6.89621C98.2631 7.19453 98.7439 8.65723 97.9326 9.60864L95.9706 11.9096C95.6851 12.2443 95.5432 12.676 95.5751 13.1127L95.7943 16.1142C95.8849 17.3553 94.6262 18.2593 93.4602 17.7906L90.6402 16.657C90.2299 16.4921 89.7707 16.4921 89.3605 16.657L86.5405 17.7906C85.3744 18.2593 84.1157 17.3553 84.2064 16.1142L84.4255 13.1127C84.4574 12.676 84.3155 12.2443 84.0301 11.9096L82.0681 9.60864C81.2568 8.65723 81.7376 7.19453 82.9596 6.89621L85.9151 6.17475C86.345 6.06979 86.7165 5.80297 86.9504 5.43117L88.5578 2.87555Z" fill="#F5B546"/>
</svg>
